
@startuml
!include ../style.puml
skinparam arrowThickness 1.1
skinparam arrowColor MODEL_COLOR
skinparam classBackgroundColor MODEL_COLOR
skinparam classAttributeIconSize 0
skinparam classAttributeFontColor #FFFFFFF

Package Command <<Rectangle>> {
    Class "{abstract}\nCommand" as Command
    Class UndoCommand
    Class RedoCommand
}

UndoCommand -up-|> Command
RedoCommand -up-|> Command

class Command {
    +execute(Model): void {abstract}
    +executeInverse(Model): void {abstract}
}

class RedoCommand {
    -numberOfTries: int
}

class UndoCommand {
    -numberOfTries: int
}

@enduml
