@startuml
!include style.puml
skinparam arrowThickness 1.1
skinparam arrowColor LOGIC_COLOR_T4
skinparam classBackgroundColor LOGIC_COLOR

package Code {

package Data {
Class Solution
}
class FileImporter
class JavaRunner
class JavaScriptRunner
}

JavaRunner ..> Solution :> externally runs
JavaScriptRunner ..> FileImporter :> reads JS files with




@enduml
